{
    "asset" : {
        "generator" : "Khronos glTF Blender I/O v1.6.16",
        "version" : "2.0"
    },
    "scene" : 0,
    "scenes" : [
        {
            "name" : "Scene",
            "nodes" : [
                0,
                1,
                2,
                3,
                4,
                5,
                6,
                7,
                8
            ]
        }
    ],
    "nodes" : [
        {
            "name" : "Light",
            "rotation" : [
                0.16907575726509094,
                0.7558803558349609,
                -0.27217137813568115,
                0.570947527885437
            ],
            "translation" : [
                4.076245307922363,
                5.903861999511719,
                -1.0054539442062378
            ]
        },
        {
            "name" : "Camera",
            "rotation" : [
                0.483536034822464,
                0.33687159419059753,
                -0.20870360732078552,
                0.7804827094078064
            ],
            "translation" : [
                7.358891487121582,
                4.958309173583984,
                6.925790786743164
            ]
        },
        {
            "mesh" : 0,
            "name" : "Cube.001_Cube.004",
            "rotation" : [
                0.7071068286895752,
                0,
                0,
                0.7071067094802856
            ]
        },
        {
            "mesh" : 1,
            "name" : "Cube_Cube.003",
            "rotation" : [
                0.7071068286895752,
                0,
                0,
                0.7071067094802856
            ]
        },
        {
            "mesh" : 2,
            "name" : "Icosphere",
            "rotation" : [
                0.7071068286895752,
                0,
                0,
                0.7071067094802856
            ]
        },
        {
            "mesh" : 3,
            "name" : "Icosphere.001_Icosphere.002",
            "rotation" : [
                0.7071068286895752,
                0,
                0,
                0.7071067094802856
            ]
        },
        {
            "mesh" : 4,
            "name" : "Icosphere.002_Icosphere.003",
            "rotation" : [
                0.7071068286895752,
                0,
                0,
                0.7071067094802856
            ]
        },
        {
            "mesh" : 5,
            "name" : "Icosphere.003_Icosphere.004",
            "rotation" : [
                0.7071068286895752,
                0,
                0,
                0.7071067094802856
            ]
        },
        {
            "mesh" : 6,
            "name" : "Icosphere.004_Icosphere.005",
            "rotation" : [
                0.7071068286895752,
                0,
                0,
                0.7071067094802856
            ]
        }
    ],
    "materials" : [
        {
            "doubleSided" : true,
            "name" : "Red",
            "pbrMetallicRoughness" : {
                "baseColorFactor" : [
                    0.6399999856948853,
                    0.007280999794602394,
                    0,
                    1
                ],
                "metallicFactor" : 0,
                "roughnessFactor" : 0.6732679605484009
            }
        },
        {
            "doubleSided" : true,
            "name" : "White",
            "pbrMetallicRoughness" : {
                "baseColorFactor" : [
                    0.6399999856948853,
                    0.6399999856948853,
                    0.6399999856948853,
                    1
                ],
                "metallicFactor" : 0,
                "roughnessFactor" : 0.6732679605484009
            }
        },
        {
            "doubleSided" : true,
            "name" : "LightBrown",
            "pbrMetallicRoughness" : {
                "baseColorFactor" : [
                    0.19695499539375305,
                    0.08305499702692032,
                    0.04758799821138382,
                    1
                ],
                "metallicFactor" : 0,
                "roughnessFactor" : 0.6732679605484009
            }
        },
        {
            "doubleSided" : true,
            "name" : "Blue",
            "pbrMetallicRoughness" : {
                "baseColorFactor" : [
                    0.07841099798679352,
                    0.3034209907054901,
                    0.37376001477241516,
                    1
                ],
                "metallicFactor" : 0,
                "roughnessFactor" : 0.6732679605484009
            }
        },
        {
            "doubleSided" : true,
            "name" : "Green",
            "pbrMetallicRoughness" : {
                "baseColorFactor" : [
                    0.02335299924015999,
                    0.2248069941997528,
                    0.012757999822497368,
                    1
                ],
                "metallicFactor" : 0,
                "roughnessFactor" : 0.6732679605484009
            }
        },
        {
            "doubleSided" : true,
            "name" : "Snow",
            "pbrMetallicRoughness" : {
                "baseColorFactor" : [
                    0.5106160044670105,
                    0.5106160044670105,
                    0.5106160044670105,
                    1
                ],
                "metallicFactor" : 0,
                "roughnessFactor" : 0.6732679605484009
            }
        },
        {
            "doubleSided" : true,
            "name" : "Brown",
            "pbrMetallicRoughness" : {
                "baseColorFactor" : [
                    0.0668250024318695,
                    0.027931999415159225,
                    0.01299699954688549,
                    1
                ],
                "metallicFactor" : 0,
                "roughnessFactor" : 0.6732679605484009
            }
        },
        {
            "doubleSided" : true,
            "name" : "DarkGreen",
            "pbrMetallicRoughness" : {
                "baseColorFactor" : [
                    0.015506000258028507,
                    0.12962299585342407,
                    0.009828999638557434,
                    1
                ],
                "metallicFactor" : 0,
                "roughnessFactor" : 0.6732679605484009
            }
        }
    ],
    "meshes" : [
        {
            "name" : "Cube.001_Cube.004",
            "primitives" : [
                {
                    "attributes" : {
                        "POSITION" : 0,
                        "NORMAL" : 1
                    },
                    "indices" : 2,
                    "material" : 0
                },
                {
                    "attributes" : {
                        "POSITION" : 3,
                        "NORMAL" : 4
                    },
                    "indices" : 5,
                    "material" : 1
                }
            ]
        },
        {
            "name" : "Cube_Cube.003",
            "primitives" : [
                {
                    "attributes" : {
                        "POSITION" : 6,
                        "NORMAL" : 7
                    },
                    "indices" : 8,
                    "material" : 2
                }
            ]
        },
        {
            "name" : "Icosphere",
            "primitives" : [
                {
                    "attributes" : {
                        "POSITION" : 9,
                        "NORMAL" : 10
                    },
                    "indices" : 11,
                    "material" : 3
                },
                {
                    "attributes" : {
                        "POSITION" : 12,
                        "NORMAL" : 13
                    },
                    "indices" : 14,
                    "material" : 4
                },
                {
                    "attributes" : {
                        "POSITION" : 15,
                        "NORMAL" : 16
                    },
                    "indices" : 17,
                    "material" : 5
                },
                {
                    "attributes" : {
                        "POSITION" : 18,
                        "NORMAL" : 19
                    },
                    "indices" : 20,
                    "material" : 6
                },
                {
                    "attributes" : {
                        "POSITION" : 21,
                        "NORMAL" : 22
                    },
                    "indices" : 23,
                    "material" : 7
                }
            ]
        },
        {
            "name" : "Icosphere.001_Icosphere.002",
            "primitives" : [
                {
                    "attributes" : {
                        "POSITION" : 24,
                        "NORMAL" : 25
                    },
                    "indices" : 26,
                    "material" : 1
                }
            ]
        },
        {
            "name" : "Icosphere.002_Icosphere.003",
            "primitives" : [
                {
                    "attributes" : {
                        "POSITION" : 27,
                        "NORMAL" : 28
                    },
                    "indices" : 29,
                    "material" : 1
                }
            ]
        },
        {
            "name" : "Icosphere.003_Icosphere.004",
            "primitives" : [
                {
                    "attributes" : {
                        "POSITION" : 30,
                        "NORMAL" : 31
                    },
                    "indices" : 32,
                    "material" : 1
                }
            ]
        },
        {
            "name" : "Icosphere.004_Icosphere.005",
            "primitives" : [
                {
                    "attributes" : {
                        "POSITION" : 33,
                        "NORMAL" : 34
                    },
                    "indices" : 35,
                    "material" : 1
                }
            ]
        }
    ],
    "accessors" : [
        {
            "bufferView" : 0,
            "componentType" : 5126,
            "count" : 174,
            "max" : [
                0.763418972492218,
                -0.7380650043487549,
                0.16193300485610962
            ],
            "min" : [
                0.5363739728927612,
                -1.014464020729065,
                0.03275400027632713
            ],
            "type" : "VEC3"
        },
        {
            "bufferView" : 1,
            "componentType" : 5126,
            "count" : 174,
            "type" : "VEC3"
        },
        {
            "bufferView" : 2,
            "componentType" : 5123,
            "count" : 432,
            "type" : "SCALAR"
        },
        {
            "bufferView" : 3,
            "componentType" : 5126,
            "count" : 96,
            "max" : [
                0.763418972492218,
                -0.8128160238265991,
                0.16193300485610962
            ],
            "min" : [
                0.5850610136985779,
                -1.014464020729065,
                0.03275400027632713
            ],
            "type" : "VEC3"
        },
        {
            "bufferView" : 4,
            "componentType" : 5126,
            "count" : 96,
            "type" : "VEC3"
        },
        {
            "bufferView" : 5,
            "componentType" : 5123,
            "count" : 192,
            "type" : "SCALAR"
        },
        {
            "bufferView" : 6,
            "componentType" : 5126,
            "count" : 184,
            "max" : [
                0.7040259838104248,
                -0.4176830053329468,
                -0.5525720119476318
            ],
            "min" : [
                0.3513689935207367,
                -0.7554479837417603,
                -0.7018669843673706
            ],
            "type" : "VEC3"
        },
        {
            "bufferView" : 7,
            "componentType" : 5126,
            "count" : 184,
            "type" : "VEC3"
        },
        {
            "bufferView" : 8,
            "componentType" : 5123,
            "count" : 276,
            "type" : "SCALAR"
        },
        {
            "bufferView" : 9,
            "componentType" : 5126,
            "count" : 2768,
            "max" : [
                1.0118989944458008,
                1.0023640394210815,
                0.9985340237617493
            ],
            "min" : [
                -0.9907029867172241,
                -1.0182709693908691,
                -1.0531350374221802
            ],
            "type" : "VEC3"
        },
        {
            "bufferView" : 10,
            "componentType" : 5126,
            "count" : 2768,
            "type" : "VEC3"
        },
        {
            "bufferView" : 11,
            "componentType" : 5123,
            "count" : 3414,
            "type" : "SCALAR"
        },
        {
            "bufferView" : 12,
            "componentType" : 5126,
            "count" : 2031,
            "max" : [
                1.0678809881210327,
                1.0526310205459595,
                1.0442179441452026
            ],
            "min" : [
                -1.0605440139770508,
                -1.0283039808273315,
                -1.0546740293502808
            ],
            "type" : "VEC3"
        },
        {
            "bufferView" : 13,
            "componentType" : 5126,
            "count" : 2031,
            "type" : "VEC3"
        },
        {
            "bufferView" : 14,
            "componentType" : 5123,
            "count" : 2379,
            "type" : "SCALAR"
        },
        {
            "bufferView" : 15,
            "componentType" : 5126,
            "count" : 309,
            "max" : [
                1.3478519916534424,
                0.1563660055398941,
                -0.3182249963283539
            ],
            "min" : [
                -0.20731599628925323,
                -0.39193201065063477,
                -1.313330054283142
            ],
            "type" : "VEC3"
        },
        {
            "bufferView" : 16,
            "componentType" : 5126,
            "count" : 309,
            "type" : "VEC3"
        },
        {
            "bufferView" : 17,
            "componentType" : 5123,
            "count" : 417,
            "type" : "SCALAR"
        },
        {
            "bufferView" : 18,
            "componentType" : 5126,
            "count" : 48,
            "max" : [
                1.309291958808899,
                0.20094799995422363,
                -0.1359809935092926
            ],
            "min" : [
                1.0067460536956787,
                -0.14827799797058105,
                -0.4562259912490845
            ],
            "type" : "VEC3"
        },
        {
            "bufferView" : 19,
            "componentType" : 5126,
            "count" : 48,
            "type" : "VEC3"
        },
        {
            "bufferView" : 20,
            "componentType" : 5123,
            "count" : 72,
            "type" : "SCALAR"
        },
        {
            "bufferView" : 21,
            "componentType" : 5126,
            "count" : 24,
            "max" : [
                1.08992600440979,
                0.20873099565505981,
                -0.12111499905586243
            ],
            "min" : [
                0.9772019982337952,
                -0.16597199440002441,
                -0.4683839976787567
            ],
            "type" : "VEC3"
        },
        {
            "bufferView" : 22,
            "componentType" : 5126,
            "count" : 24,
            "type" : "VEC3"
        },
        {
            "bufferView" : 23,
            "componentType" : 5123,
            "count" : 36,
            "type" : "SCALAR"
        },
        {
            "bufferView" : 24,
            "componentType" : 5126,
            "count" : 122,
            "max" : [
                0.0164560005068779,
                1.1165900230407715,
                -0.8388199806213379
            ],
            "min" : [
                -0.41746100783348083,
                0.7805719971656799,
                -1.180299997329712
            ],
            "type" : "VEC3"
        },
        {
            "bufferView" : 25,
            "componentType" : 5126,
            "count" : 122,
            "type" : "VEC3"
        },
        {
            "bufferView" : 26,
            "componentType" : 5123,
            "count" : 174,
            "type" : "SCALAR"
        },
        {
            "bufferView" : 27,
            "componentType" : 5126,
            "count" : 136,
            "max" : [
                1.3803880214691162,
                0.6677089929580688,
                -0.2583880126476288
            ],
            "min" : [
                1.005892038345337,
                0.25811299681663513,
                -0.5998679995536804
            ],
            "type" : "VEC3"
        },
        {
            "bufferView" : 28,
            "componentType" : 5126,
            "count" : 136,
            "type" : "VEC3"
        },
        {
            "bufferView" : 29,
            "componentType" : 5123,
            "count" : 174,
            "type" : "SCALAR"
        },
        {
            "bufferView" : 30,
            "componentType" : 5126,
            "count" : 136,
            "max" : [
                0.760246992111206,
                -1.1188369989395142,
                0.4360319972038269
            ],
            "min" : [
                0.4023599922657013,
                -1.4866600036621094,
                0.042980000376701355
            ],
            "type" : "VEC3"
        },
        {
            "bufferView" : 31,
            "componentType" : 5126,
            "count" : 136,
            "type" : "VEC3"
        },
        {
            "bufferView" : 32,
            "componentType" : 5123,
            "count" : 174,
            "type" : "SCALAR"
        },
        {
            "bufferView" : 33,
            "componentType" : 5126,
            "count" : 122,
            "max" : [
                -0.565887987613678,
                -0.7410240173339844,
                -0.35594499111175537
            ],
            "min" : [
                -0.9189850091934204,
                -1.057723045349121,
                -0.8142340183258057
            ],
            "type" : "VEC3"
        },
        {
            "bufferView" : 34,
            "componentType" : 5126,
            "count" : 122,
            "type" : "VEC3"
        },
        {
            "bufferView" : 35,
            "componentType" : 5123,
            "count" : 174,
            "type" : "SCALAR"
        }
    ],
    "bufferViews" : [
        {
            "buffer" : 0,
            "byteLength" : 2088,
            "byteOffset" : 0
        },
        {
            "buffer" : 0,
            "byteLength" : 2088,
            "byteOffset" : 2088
        },
        {
            "buffer" : 0,
            "byteLength" : 864,
            "byteOffset" : 4176
        },
        {
            "buffer" : 0,
            "byteLength" : 1152,
            "byteOffset" : 5040
        },
        {
            "buffer" : 0,
            "byteLength" : 1152,
            "byteOffset" : 6192
        },
        {
            "buffer" : 0,
            "byteLength" : 384,
            "byteOffset" : 7344
        },
        {
            "buffer" : 0,
            "byteLength" : 2208,
            "byteOffset" : 7728
        },
        {
            "buffer" : 0,
            "byteLength" : 2208,
            "byteOffset" : 9936
        },
        {
            "buffer" : 0,
            "byteLength" : 552,
            "byteOffset" : 12144
        },
        {
            "buffer" : 0,
            "byteLength" : 33216,
            "byteOffset" : 12696
        },
        {
            "buffer" : 0,
            "byteLength" : 33216,
            "byteOffset" : 45912
        },
        {
            "buffer" : 0,
            "byteLength" : 6828,
            "byteOffset" : 79128
        },
        {
            "buffer" : 0,
            "byteLength" : 24372,
            "byteOffset" : 85956
        },
        {
            "buffer" : 0,
            "byteLength" : 24372,
            "byteOffset" : 110328
        },
        {
            "buffer" : 0,
            "byteLength" : 4758,
            "byteOffset" : 134700
        },
        {
            "buffer" : 0,
            "byteLength" : 3708,
            "byteOffset" : 139460
        },
        {
            "buffer" : 0,
            "byteLength" : 3708,
            "byteOffset" : 143168
        },
        {
            "buffer" : 0,
            "byteLength" : 834,
            "byteOffset" : 146876
        },
        {
            "buffer" : 0,
            "byteLength" : 576,
            "byteOffset" : 147712
        },
        {
            "buffer" : 0,
            "byteLength" : 576,
            "byteOffset" : 148288
        },
        {
            "buffer" : 0,
            "byteLength" : 144,
            "byteOffset" : 148864
        },
        {
            "buffer" : 0,
            "byteLength" : 288,
            "byteOffset" : 149008
        },
        {
            "buffer" : 0,
            "byteLength" : 288,
            "byteOffset" : 149296
        },
        {
            "buffer" : 0,
            "byteLength" : 72,
            "byteOffset" : 149584
        },
        {
            "buffer" : 0,
            "byteLength" : 1464,
            "byteOffset" : 149656
        },
        {
            "buffer" : 0,
            "byteLength" : 1464,
            "byteOffset" : 151120
        },
        {
            "buffer" : 0,
            "byteLength" : 348,
            "byteOffset" : 152584
        },
        {
            "buffer" : 0,
            "byteLength" : 1632,
            "byteOffset" : 152932
        },
        {
            "buffer" : 0,
            "byteLength" : 1632,
            "byteOffset" : 154564
        },
        {
            "buffer" : 0,
            "byteLength" : 348,
            "byteOffset" : 156196
        },
        {
            "buffer" : 0,
            "byteLength" : 1632,
            "byteOffset" : 156544
        },
        {
            "buffer" : 0,
            "byteLength" : 1632,
            "byteOffset" : 158176
        },
        {
            "buffer" : 0,
            "byteLength" : 348,
            "byteOffset" : 159808
        },
        {
            "buffer" : 0,
            "byteLength" : 1464,
            "byteOffset" : 160156
        },
        {
            "buffer" : 0,
            "byteLength" : 1464,
            "byteOffset" : 161620
        },
        {
            "buffer" : 0,
            "byteLength" : 348,
            "byteOffset" : 163084
        }
    ],
    "buffers" : [
        {
            "byteLength" : 163432,
            "uri" : "data:application/octet-stream;base64,"
        }
    ]
}
