  <svg fill='#f8f8f8' width="499.29mm" height="211.43mm" version="1.1" viewBox="0 0 499.29 211.43" xmlns="http://www.w3.org/2000/svg">
   <g transform="translate(144.01 .19665)">
    <rect id="rect43" x="-110.93" y="16.166" width=".66436" height="2.8161" style="stroke-width:.26458"/>
    <rect id="rect45" x="-111.99" y="17.227" width="2.7963" height=".72386" style="stroke-width:.26458"/>
    <rect id="rect47" x="-125.72" y="10.4" width=".61974" height=".61478" style="stroke-width:.26458"/>
    <rect id="rect49" x="-140.56" y="22.545" width=".6661" height=".64506" style="stroke-width:.26458"/>
    <rect id="rect1042" x="-125.81" y="37.356" width=".6782" height=".62558" style="stroke-width:.26458"/>
    <rect id="rect1044" x="-122.86" y="92.693" width=".65481" height=".58465" style="stroke-width:.26458"/>
    <rect id="rect1046" x="-137.74" y="107.5" width=".58466" height=".51449" style="stroke-width:.26458"/>
    <rect id="rect1048" x="-108.04" y="111.73" width=".56127" height="2.6894" style="stroke-width:.26458"/>
    <rect id="rect1050" x="-109.11" y="112.76" width="2.666" height=".58465" style="stroke-width:.26458"/>
    <rect id="rect1052" x="-122.82" y="119.7" width=".49111" height=".49111" style="stroke-width:.26458"/>
    <rect id="rect1054" x="-144.01" y="160.96" width=".65481" height=".63142" style="stroke-width:.26458"/>
    <rect id="rect1056" x="-112.15" y="156.77" width=".42095" height=".39756" style="stroke-width:.26458"/>
    <rect id="rect1058" x="-124.38" y="191.59" width=".51449" height=".65481" style="stroke-width:.26458"/>
    <rect id="rect1060" x="-124.13" y="210.72" width=".49111" height=".51449" style="stroke-width:.26458"/>
    <rect id="rect1062" x="-96.672" y="184.97" width=".65481" height="2.7362" style="stroke-width:.26458"/>
    <rect id="rect1064" x="-97.748" y="186.07" width="2.7128" height=".56127" style="stroke-width:.26458"/>
    <rect id="rect1066" x="-101.96" y="168.14" width=".51449" height=".44434" style="stroke-width:.26458"/>
    <rect id="rect1068" x="-73.661" y="148.94" width=".63142" height="2.8063" style="stroke-width:.26458"/>
    <rect id="rect1070" x="-74.76" y="150.06" width="2.7829" height=".63142" style="stroke-width:.26458"/>
    <rect id="rect1072" x="-72.865" y="177.94" width=".58465" height=".51449" style="stroke-width:.26458"/>
    <rect id="rect1074" x="-90.873" y="85.256" width=".60804" height=".60804" style="stroke-width:.26458"/>
    <rect id="rect1076" x="-93.773" y="44.798" width=".65481" height=".56127" style="stroke-width:.26458"/>
    <rect id="rect1078" x="-61.967" y="49.054" width=".51449" height=".49111" style="stroke-width:.26458"/>
    <rect id="rect1080" x="-59.091" y="80.976" width=".63142" height=".56127" style="stroke-width:.26458"/>
    <rect id="rect1082" x="-45.878" y="155.65" width=".63142" height=".58465" style="stroke-width:.26458"/>
    <rect id="rect1084" x="-64.353" y="170.97" width=".58465" height=".60804" style="stroke-width:.26458"/>
    <rect id="rect1086" x="-58.015" y="192.67" width=".46772" height=".42095" style="stroke-width:.26458"/>
    <rect id="rect1088" x="-34.793" y="164.63" width=".63142" height="2.7362" style="stroke-width:.26458"/>
    <rect id="rect1090" x="-35.822" y="165.7" width="2.666" height=".58465" style="stroke-width:.26458"/>
    <rect id="rect1092" x="-20.738" y="144.47" width=".58465" height="2.7596" style="stroke-width:.26458"/>
    <rect id="rect1094" x="-21.86" y="145.59" width="2.7829" height=".56127" style="stroke-width:.26458"/>
    <rect id="rect1096" x="-6.4723" y="93.465" width=".60804" height="2.6894" style="stroke-width:.26458"/>
    <rect id="rect1098" x="-7.5481" y="94.587" width="2.7128" height=".46772" style="stroke-width:.26458"/>
    <rect id="rect1100" x="-20.481" y="73.306" width=".63142" height="2.7596" style="stroke-width:.26458"/>
    <rect id="rect1102" x="-21.533" y="74.382" width="2.7128" height=".60804" style="stroke-width:.26458"/>
    <rect id="rect1104" x="-23.427" y="54.55" width=".63142" height="2.7128" style="stroke-width:.26458"/>
    <rect id="rect1106" x="-24.48" y="55.603" width="2.7362" height=".58465" style="stroke-width:.26458"/>
    <rect id="rect1108" x="1.7596" y="45.64" width=".56127" height=".46772" style="stroke-width:.26458"/>
    <rect id="rect1110" x="-9.3488" y="34.438" width=".56127" height="2.7128" style="stroke-width:.26458"/>
    <rect id="rect1112" x="-10.448" y="35.514" width="2.6894" height=".56127" style="stroke-width:.26458"/>
    <rect id="rect1114" x="13.92" y="8.503" width=".58465" height=".60804" style="stroke-width:.26458"/>
    <rect id="rect1116" x="20.305" y="30.182" width=".56127" height=".65481" style="stroke-width:.26458"/>
    <rect id="rect1118" x="29.566" y="49.99" width=".56127" height="2.7829" style="stroke-width:.26458"/>
    <rect id="rect1120" x="28.466" y="51.183" width="2.666" height=".49111" style="stroke-width:.26458"/>
    <rect id="rect1122" x="28.724" y="23.353" width=".63142" height=".53788" style="stroke-width:.26458"/>
    <rect id="rect1124" x="32.466" y="77.889" width=".58465" height="2.6894" style="stroke-width:.26458"/>
    <rect id="rect1126" x="31.366" y="78.942" width="2.6894" height=".53788" style="stroke-width:.26458"/>
    <rect id="rect1128" x="4.7296" y="84.578" width=".49111" height=".39756" style="stroke-width:.26458"/>
    <rect id="rect1130" x="23.181" y="99.826" width=".58465" height=".51449" style="stroke-width:.26458"/>
    <rect id="rect1132" x="31.67" y="106.75" width=".53788" height=".53788" style="stroke-width:.26458"/>
    <rect id="rect1134" x="16.89" y="121.48" width=".58465" height=".63142" style="stroke-width:.26458"/>
    <rect id="rect1136" x="27.718" y="154.67" width=".49111" height=".46772" style="stroke-width:.26458"/>
    <rect id="rect1138" x="18.06" y="152.26" width=".39756" height=".42095" style="stroke-width:.26458"/>
    <rect id="rect1140" x="42.545" y="207.85" width=".53788" height=".44434" style="stroke-width:.26458"/>
    <rect id="rect1142" x="81.74" y="190.84" width=".53788" height=".49111" style="stroke-width:.26458"/>
    <rect id="rect1144" x="47.246" y="185.28" width=".65481" height=".53788" style="stroke-width:.26458"/>
    <rect id="rect1146" x="75.028" y="178.61" width=".63142" height="2.7128" style="stroke-width:.26458"/>
    <rect id="rect1148" x="73.952" y="179.74" width="2.7128" height=".53788" style="stroke-width:.26458"/>
    <rect id="rect1150" x="69.86" y="161.87" width=".44434" height=".51449" style="stroke-width:.26458"/>
    <rect id="rect1152" x="59.57" y="150.48" width=".49111" height=".49111" style="stroke-width:.26458"/>
    <rect id="rect1154" x="83.237" y="120.43" width=".60804" height=".60804" style="stroke-width:.26458"/>
    <rect id="rect1156" x="55.431" y="113.79" width=".60804" height="2.7596" style="stroke-width:.26458"/>
    <rect id="rect1158" x="54.355" y="114.91" width="2.7596" height=".56127" style="stroke-width:.26458"/>
    <rect id="rect1160" x="60.786" y="96.902" width=".51449" height=".58465" style="stroke-width:.26458"/>
    <rect id="rect1162" x="71.053" y="85.537" width=".60804" height=".58465" style="stroke-width:.26458"/>
    <rect id="rect1164" x="68.176" y="44.564" width=".56127" height=".53788" style="stroke-width:.26458"/>
    <rect id="rect1166" x="57.863" y="33.129" width=".60804" height=".58465" style="stroke-width:.26458"/>
    <rect id="rect1168" x="52.484" y="14.069" width=".60804" height="2.666" style="stroke-width:.26458"/>
    <rect id="rect1170" x="51.432" y="15.145" width="2.7596" height=".53788" style="stroke-width:.26458"/>
    <rect id="rect1172" x="80.313" y="9.6021" width=".63142" height=".56127" style="stroke-width:.26458"/>
    <rect id="rect1174" x="99.864" y="40.285" width=".60804" height=".53788" style="stroke-width:.26458"/>
    <rect id="rect1176" x="108.91" y="48.961" width=".58465" height=".56127" style="stroke-width:.26458"/>
    <rect id="rect1178" x="111.86" y="81.023" width=".56127" height=".51449" style="stroke-width:.26458"/>
    <rect id="rect1180" x="102.9" y="89.746" width=".53788" height=".58465" style="stroke-width:.26458"/>
    <rect id="rect1182" x="98.017" y="142.65" width=".63142" height="2.7362" style="stroke-width:.26458"/>
    <rect id="rect1184" x="96.964" y="143.72" width="2.666" height=".60804" style="stroke-width:.26458"/>
    <rect id="rect1186" x="125.82" y="149.33" width=".58465" height=".46772" style="stroke-width:.26458"/>
    <rect id="rect1188" x="107.32" y="164.68" width=".58465" height=".60804" style="stroke-width:.26458"/>
    <rect id="rect1190" x="98.812" y="171.53" width=".63142" height=".60804" style="stroke-width:.26458"/>
    <rect id="rect1192" x="113.73" y="186.45" width=".49111" height=".44434" style="stroke-width:.26458"/>
    <rect id="rect1194" x="111.04" y="198.21" width=".53788" height=".53788" style="stroke-width:.26458"/>
    <rect id="rect1196" x="138.73" y="191.57" width=".63142" height="2.6894" style="stroke-width:.26458"/>
    <rect id="rect1198" x="137.68" y="192.69" width="2.7829" height=".53788" style="stroke-width:.26458"/>
    <rect id="rect1200" x="136.86" y="158.24" width=".70158" height="2.7128" style="stroke-width:.26458"/>
    <rect id="rect1202" x="135.81" y="159.39" width="2.6894" height=".53788" style="stroke-width:.26458"/>
    <rect id="rect1204" x="150.94" y="138.16" width=".65481" height="2.6894" style="stroke-width:.26458"/>
    <rect id="rect1206" x="149.89" y="139.28" width="2.7128" height=".53788" style="stroke-width:.26458"/>
    <rect id="rect1208" x="164.43" y="93.465" width=".65481" height="2.6426" style="stroke-width:.26458"/>
    <rect id="rect1210" x="163.33" y="94.54" width="2.7596" height=".51449" style="stroke-width:.26458"/>
    <rect id="rect1212" x="150.47" y="73.376" width=".56127" height="2.7128" style="stroke-width:.26458"/>
    <rect id="rect1214" x="149.35" y="74.428" width="2.7829" height=".56127" style="stroke-width:.26458"/>
    <rect id="rect1216" x="147.57" y="54.55" width=".58465" height="2.7128" style="stroke-width:.26458"/>
    <rect id="rect1218" x="146.47" y="55.673" width="2.7128" height=".51449" style="stroke-width:.26458"/>
    <rect id="rect1220" x="161.58" y="34.462" width=".63142" height="2.666" style="stroke-width:.26458"/>
    <rect id="rect1222" x="160.48" y="35.561" width="2.6894" height=".51449" style="stroke-width:.26458"/>
    <rect id="rect1224" x="191.19" y="30.322" width=".56127" height=".49111" style="stroke-width:.26458"/>
    <rect id="rect1226" x="199.68" y="23.4" width=".72497" height=".58465" style="stroke-width:.26458"/>
    <rect id="rect1228" x="184.83" y="8.5497" width=".60804" height=".53788" style="stroke-width:.26458"/>
    <rect id="rect1230" x="172.57" y="45.57" width=".63142" height=".53788" style="stroke-width:.26458"/>
    <rect id="rect1232" x="200.38" y="50.037" width=".60804" height="2.7128" style="stroke-width:.26458"/>
    <rect id="rect1234" x="199.35" y="51.206" width="2.7362" height=".49111" style="stroke-width:.26458"/>
    <rect id="rect1236" x="203.35" y="77.819" width=".60804" height="2.7128" style="stroke-width:.26458"/>
    <rect id="rect1238" x="202.25" y="78.872" width="2.7362" height=".63142" style="stroke-width:.26458"/>
    <rect id="rect1240" x="175.52" y="84.484" width=".74835" height=".53788" style="stroke-width:.26458"/>
    <rect id="rect1242" x="194.04" y="99.849" width=".6782" height=".58465" style="stroke-width:.26458"/>
    <rect id="rect1244" x="202.58" y="106.77" width=".60804" height=".42095" style="stroke-width:.26458"/>
    <rect id="rect1246" x="187.75" y="121.57" width=".51449" height=".51449" style="stroke-width:.26458"/>
    <rect id="rect1248" x="189.69" y="145.92" width=".53788" height=".42095" style="stroke-width:.26458"/>
    <rect id="rect1250" x="177.46" y="199.4" width=".53788" height=".39756" style="stroke-width:.26458"/>
    <rect id="rect1252" x="209.26" y="203.59" width=".58465" height=".56127" style="stroke-width:.26458"/>
    <rect id="rect1254" x="253.46" y="184.55" width=".44434" height=".46772" style="stroke-width:.26458"/>
    <rect id="rect1256" x="238.52" y="176.51" width=".65481" height="2.7596" style="stroke-width:.26458"/>
    <rect id="rect1258" x="237.47" y="177.63" width="2.8063" height=".53788" style="stroke-width:.26458"/>
    <rect id="rect1260" x="253.46" y="157.54" width=".44434" height=".44434" style="stroke-width:.26458"/>
    <rect id="rect1262" x="221.31" y="150.08" width=".58465" height=".58465" style="stroke-width:.26458"/>
    <rect id="rect1264" x="254.14" y="120.43" width=".60804" height=".56127" style="stroke-width:.26458"/>
    <rect id="rect1266" x="226.34" y="113.79" width=".63142" height="2.7362" style="stroke-width:.26458"/>
    <rect id="rect1268" x="225.31" y="114.91" width="2.666" height=".56127" style="stroke-width:.26458"/>
    <rect id="rect1270" x="231.67" y="96.926" width=".46772" height=".51449" style="stroke-width:.26458"/>
    <rect id="rect1272" x="242" y="85.56" width=".51449" height=".49111" style="stroke-width:.26458"/>
    <rect id="rect1274" x="239.08" y="44.494" width=".56127" height=".56127" style="stroke-width:.26458"/>
    <rect id="rect1276" x="228.79" y="33.129" width=".51449" height=".56127" style="stroke-width:.26458"/>
    <rect id="rect1278" x="223.46" y="14.092" width=".56127" height="2.6894" style="stroke-width:.26458"/>
    <rect id="rect1280" x="222.41" y="15.215" width="2.6426" height=".46772" style="stroke-width:.26458"/>
    <rect id="rect1282" x="251.29" y="9.6021" width=".51449" height=".58465" style="stroke-width:.26458"/>
    <rect id="rect1284" x="284.54" y="-.19665" width=".58465" height=".60804" style="stroke-width:.26458"/>
    <rect id="rect1286" x="288.87" y="7.2401" width=".51449" height=".46772" style="stroke-width:.26458"/>
    <rect id="rect1288" x="280.36" y="14.186" width=".56127" height=".46772" style="stroke-width:.26458"/>
    <rect id="rect1290" x="292.12" y="19.518" width=".42095" height=".42095" style="stroke-width:.26458"/>
    <rect id="rect1292" x="270.93" y="40.355" width=".46772" height=".51449" style="stroke-width:.26458"/>
    <rect id="rect1294" x="278.95" y="79.152" width=".60804" height="2.7128" style="stroke-width:.26458"/>
    <rect id="rect1296" x="277.86" y="80.205" width="2.8063" height=".56127" style="stroke-width:.26458"/>
    <rect id="rect1298" x="273.74" y="89.77" width=".56127" height=".51449" style="stroke-width:.26458"/>
    <rect id="rect1300" x="278.23" y="108.06" width=".56127" height=".49111" style="stroke-width:.26458"/>
    <rect id="rect1302" x="302.11" y="115.19" width=".53788" height="2.6426" style="stroke-width:.26458"/>
    <rect id="rect1304" x="300.91" y="116.24" width="2.7829" height=".5145" style="stroke-width:.26458"/>
    <rect id="rect1306" x="263.54" y="123.09" width=".39756" height=".42095" style="stroke-width:.26458"/>
    <rect id="rect1308" x="285.04" y="163.04" width=".60804" height=".58465" style="stroke-width:.26458"/>
    <rect id="rect1310" x="268.17" y="172.32" width=".63142" height=".58465" style="stroke-width:.26458"/>
    <rect id="rect1312" x="302.29" y="189.46" width=".63142" height="2.666" style="stroke-width:.26458"/>
    <rect id="rect1314" x="301.31" y="190.59" width="2.6426" height=".53788" style="stroke-width:.26458"/>
    <rect id="rect1319" x="317.21" y="197.58" width=".46772" height=".49111" style="stroke-width:.26458"/>
    <rect id="rect1321" x="331.99" y="185.28" width=".63142" height=".63142" style="stroke-width:.26458"/>
    <rect id="rect1323" x="317.12" y="170.57" width=".53788" height=".32741" style="stroke-width:.26458"/>
    <rect id="rect1325" x="329.91" y="121.86" width=".53788" height=".49111" style="stroke-width:.26458"/>
    <rect id="rect1327" x="307.35" y="98.352" width=".53788" height=".42095" style="stroke-width:.26458"/>
    <rect id="rect1329" x="317.73" y="87.08" width=".49111" height=".32741" style="stroke-width:.26458"/>
    <rect id="rect1331" x="328.28" y="62.221" width=".56127" height=".56127" style="stroke-width:.26458"/>
    <rect id="rect1333" x="313.33" y="47.371" width=".6782" height=".58465" style="stroke-width:.26458"/>
    <rect id="rect1335" x="343.03" y="41.033" width=".6782" height="2.7362" style="stroke-width:.26458"/>
    <rect id="rect1337" x="342" y="42.132" width="2.8063" height=".53788" style="stroke-width:.26458"/>
    <rect id="rect1339" x="328.25" y="35.28" width=".60804" height=".56127" style="stroke-width:.26458"/>
    <rect id="rect1341" x="326.97" y="13.905" width=".51449" height=".51449" style="stroke-width:.26458"/>
    <rect id="rect1343" x="306.88" y="21.623" width=".42095" height=".37418" style="stroke-width:.26458"/>
    <rect id="rect1345" x="307.98" y="22.277" width=".46772" height=".25725" style="stroke-width:.26458"/>
    <rect id="rect1347" x="322.71" y="6.3982" width=".58465" height=".58465" style="stroke-width:.26458"/>
    <rect id="rect1349" x="315.39" y="8.386" width=".39756" height=".42095" style="stroke-width:.26458"/>
    <rect id="rect1351" x="349.32" y="91.126" width=".72497" height=".53788" style="stroke-width:.26458"/>
    <rect id="rect1353" x="354.73" y="177.09" width=".56127" height=".53788" style="stroke-width:.26458"/>
   </g>
  </svg>
